HIERARCHY
ROOT Hips
{
	OFFSET 0.000000 0.000000 0.000000
	CHANNELS 6 Xposition Yposition Zposition Zrotation Yrotation Xrotation 
	JOINT LHipJoint
	{
		OFFSET 0.000000 0.000000 0.000000
		CHANNELS 3 Zrotation Yrotation Xrotation
		JOINT LeftUpLeg
		{
			OFFSET 1.363060 -1.794630 0.839290
			CHANNELS 3 Zrotation Yrotation Xrotation
			JOINT LeftLeg
			{
				OFFSET 2.448110 -6.726130 0.000000
				CHANNELS 3 Zrotation Yrotation Xrotation
				JOINT LeftFoot
				{
					OFFSET 2.562200 -7.039590 0.000000
					CHANNELS 3 Zrotation Yrotation Xrotation
					JOINT LeftToeBase
					{
						OFFSET 0.157640 -0.433110 2.322550
						CHANNELS 3 Zrotation Yrotation Xrotation
						End Site
						{
							OFFSET 0.000000 0.000000 0.000000
						}
					}
				}
			}
		}
	}
	JOINT RHipJoint
	{
		OFFSET 0.000000 0.000000 0.000000
		CHANNELS 3 Zrotation Yrotation Xrotation
		JOINT RightUpLeg
		{
			OFFSET -1.305520 -1.794630 0.839290
			CHANNELS 3 Zrotation Yrotation Xrotation
			JOINT RightLeg
			{
				OFFSET -2.542530 -6.985550 0.000000
				CHANNELS 3 Zrotation Yrotation Xrotation
				JOINT RightFoot
				{
					OFFSET -2.568260 -7.056230 0.000000
					CHANNELS 3 Zrotation Yrotation Xrotation
					JOINT RightToeBase
					{
						OFFSET -0.164730 -0.452590 2.363150
						CHANNELS 3 Zrotation Yrotation Xrotation
						End Site
						{
							OFFSET 0.000000 0.000000 0.000000
						}
					}
				}
			}
		}
	}
	JOINT LowerBack
	{
		OFFSET 0.000000 0.000000 0.000000
		CHANNELS 3 Zrotation Yrotation Xrotation
		JOINT Spine
		{
			OFFSET 0.028270 2.035590 -0.193380
			CHANNELS 3 Zrotation Yrotation Xrotation
			JOINT Spine1
			{
				OFFSET 0.056720 2.048850 -0.042750
				CHANNELS 3 Zrotation Yrotation Xrotation
				JOINT Neck
				{
					OFFSET 0.000000 0.000000 0.000000
					CHANNELS 3 Zrotation Yrotation Xrotation
					JOINT Neck1
					{
						OFFSET -0.054170 1.746240 0.172020
						CHANNELS 3 Zrotation Yrotation Xrotation
						JOINT Head
						{
							OFFSET 0.104070 1.761360 -0.123970
							CHANNELS 3 Zrotation Yrotation Xrotation
							End Site
							{
								OFFSET 0.000000 0.000000 0.000000
							}
						}
					}
				}
				JOINT LeftShoulder
				{
					OFFSET 0.000000 0.000000 0.000000
					CHANNELS 3 Zrotation Yrotation Xrotation
					JOINT LeftArm
					{
						OFFSET 3.362410 1.200890 -0.311210
						CHANNELS 3 Zrotation Yrotation Xrotation
						JOINT LeftForeArm
						{
							OFFSET 4.983000 -0.000000 -0.000000
							CHANNELS 3 Zrotation Yrotation Xrotation
							JOINT LeftHand
							{
								OFFSET 3.483560 -0.000000 -0.000000
								CHANNELS 3 Zrotation Yrotation Xrotation
								JOINT LeftFingerBase
								{
									OFFSET 0.000000 0.000000 0.000000
									CHANNELS 3 Zrotation Yrotation Xrotation
									JOINT LeftHandIndex1
									{
										OFFSET 0.715260 -0.000000 -0.000000
										CHANNELS 3 Zrotation Yrotation Xrotation
										End Site
										{
											OFFSET 0.000000 0.000000 0.000000
										}
									}
								}
								JOINT LThumb
								{
									OFFSET 0.000000 0.000000 0.000000
									CHANNELS 3 Zrotation Yrotation Xrotation
									End Site
									{
										OFFSET 0.000000 0.000000 0.000000
									}
								}
							}
						}
					}
				}
				JOINT RightShoulder
				{
					OFFSET 0.000000 0.000000 0.000000
					CHANNELS 3 Zrotation Yrotation Xrotation
					JOINT RightArm
					{
						OFFSET -3.136600 1.374050 -0.404650
						CHANNELS 3 Zrotation Yrotation Xrotation
						JOINT RightForeArm
						{
							OFFSET -5.241900 -0.000000 -0.000000
							CHANNELS 3 Zrotation Yrotation Xrotation
							JOINT RightHand
							{
								OFFSET -3.444170 -0.000000 -0.000000
								CHANNELS 3 Zrotation Yrotation Xrotation
								JOINT RightFingerBase
								{
									OFFSET 0.000000 0.000000 0.000000
									CHANNELS 3 Zrotation Yrotation Xrotation
									JOINT RightHandIndex1
									{
										OFFSET -0.622530 -0.000000 -0.000000
										CHANNELS 3 Zrotation Yrotation Xrotation
										End Site
										{
											OFFSET 0.000000 0.000000 0.000000
										}
									}
								}
								JOINT RThumb
								{
									OFFSET 0.000000 0.000000 0.000000
									CHANNELS 3 Zrotation Yrotation Xrotation
									End Site
									{
										OFFSET 0.000000 0.000000 0.000000
									}
								}
							}
						}
					}
				}
			}
		}
	}
}
MOTION
Frames: 12
Frame Time: 0.008333
0.053261 18.071759 11.520438 -6.301427 -3.557013 2.872775 0.659969 4.360326 2.702242 -8.029109 -10.306071 -33.225411 4.114362 13.324901 40.873149 -0.817412 4.619751 5.987489 0.018000 0.866700 2.382000 1.537661 -5.145374 5.205236 28.989930 10.662783 -4.457207 -0.983051 -5.596150 23.601547 0.511809 -2.810277 -1.968328 -0.023400 -0.987300 2.713800 4.792400 1.400031 5.701786 5.036641 2.409052 5.620482 -1.529852 1.137410 -7.891769 -4.721315 -4.715370 -15.465779 3.030532 -5.561223 15.972222 -0.449100 -2.394800 8.148600 -7.153002 2.900732 -1.340642 -81.959402 7.732876 30.889910 12.853845 -21.645295 -2.467958 -0.202629 -0.800772 2.337149 20.760187 33.443757 12.153700 -7.125000 0.000000 0.000000 -15.559500 65.452700 -7.774300 10.975329 -1.850774 -2.489197 70.961247 4.464518 19.792233 -13.727169 26.920819 -4.007183 0.713703 0.148072 0.301771 -13.949428 12.186177 -3.111800 7.125000 0.000000 0.000000 8.733500 -17.681700 5.735600
0.058303 18.071648 11.602098 -6.456483 -3.600323 2.977763 0.612475 4.324364 2.653691 -7.626125 -10.529884 -33.217621 3.718227 12.948413 39.358032 -0.879872 4.962693 6.452412 0.099581 1.838991 5.066263 1.559765 -5.143329 5.236119 29.096112 10.572053 -4.187415 -0.946386 -5.515658 23.389329 0.482081 -2.711771 -1.982968 -0.024736 -1.015403 2.791207 4.948899 1.449605 5.706820 5.087554 2.486338 5.629369 -1.597921 1.176122 -7.870182 -4.814986 -4.727186 -15.500618 3.083554 -5.557403 15.917656 -0.421777 -2.394967 8.141588 -7.152538 2.904356 -1.340522 -82.103039 7.747488 30.917491 12.797053 -21.557447 -2.451606 -0.210653 -0.780464 2.390346 21.068261 32.280603 11.976459 -7.125000 0.000000 0.000000 -14.175744 64.392095 -6.748864 10.969108 -1.839949 -2.484067 70.825747 4.747630 19.904801 -13.837466 27.071199 -4.060027 0.710873 0.114185 0.172393 -13.576910 12.969339 -3.227326 7.125000 0.000000 0.000000 8.984920 -16.877022 6.068434
0.063446 18.072077 11.684916 -6.600961 -3.650332 3.071116 0.561652 4.291096 2.609134 -7.262883 -10.704536 -33.182507 3.322687 12.564518 37.844140 -0.939663 5.277123 6.763938 0.146864 2.382276 6.566525 1.582413 -5.143524 5.268253 29.189812 10.481128 -3.896910 -0.908160 -5.432990 23.168448 0.458055 -2.631009 -1.997078 -0.025619 -1.034004 2.842450 5.097145 1.502238 5.719359 5.133503 2.567067 5.641430 -1.663839 1.216806 -7.851682 -4.907060 -4.736504 -15.527099 3.136227 -5.551543 15.853284 -0.394453 -2.394467 8.130261 -7.151248 2.907606 -1.340046 -82.245534 7.773332 30.935438 12.732585 -21.455905 -2.433872 -0.219509 -0.753293 2.401339 21.422186 30.707852 11.673369 -7.125000 0.000000 0.000000 -12.544626 62.914593 -5.563541 10.963465 -1.829991 -2.478903 70.695248 5.033092 19.979887 -13.933236 27.199938 -4.105855 0.708541 0.088802 0.059202 -13.299706 13.559741 -3.315615 7.125000 0.000000 0.000000 9.172082 -16.269998 6.317511
0.068985 18.074625 11.772282 -6.703911 -3.726642 3.118794 0.497763 4.268405 2.580261 -7.055663 -10.686187 -33.040122 2.929478 12.151547 36.335057 -0.988977 5.479617 6.473238 0.059495 1.241314 3.418487 1.607195 -5.152509 5.305296 29.234511 10.389440 -3.525088 -0.863806 -5.341779 22.913560 0.456417 -2.619908 -2.009106 -0.024729 -1.015306 2.790975 5.212988 1.566876 5.761361 5.159961 2.661314 5.665952 -1.721315 1.265232 -7.845300 -4.992862 -4.736015 -15.520772 3.187533 -5.537669 15.750417 -0.367130 -2.391351 8.101992 -7.146717 2.909387 -1.338172 -82.383541 7.843276 30.915563 12.637976 -21.300608 -2.410717 -0.231634 -0.699180 2.246647 21.956118 27.527052 10.876204 -7.125000 0.000000 0.000000 -9.942390 59.800390 -3.750512 10.960093 -1.823434 -2.473603 70.584378 5.327777 19.907827 -13.971976 27.243719 -4.124138 0.708168 0.096804 0.009558 -13.396695 13.393384 -3.296973 7.125000 0.000000 0.000000 9.106974 -16.438947 6.237767
0.075020 18.076634 11.861605 -6.749661 -3.788937 3.187692 0.428641 4.244833 2.547646 -6.889227 -10.744429 -32.922001 2.552991 11.737255 34.850907 -1.062805 5.776007 6.261943 0.020479 0.065806 0.179553 1.633805 -5.163246 5.345335 29.199985 10.283234 -3.167367 -0.810041 -5.238540 22.614648 0.454134 -2.602206 -1.974173 -0.027544 -1.065340 2.928726 5.287218 1.620313 5.737256 5.155160 2.732780 5.695515 -1.767077 1.305057 -7.803752 -5.055496 -4.735423 -15.550554 3.224845 -5.523130 15.683646 -0.347285 -2.386721 8.089945 -7.145973 2.911974 -1.339168 -82.508419 7.901618 30.862076 12.544947 -21.154596 -2.379723 -0.237009 -0.680112 2.143374 22.174309 26.363088 10.606793 -7.125000 0.000000 0.000000 -8.911643 58.675488 -3.025052 10.957282 -1.814759 -2.468267 70.479924 5.609142 19.888819 -14.033816 27.314458 -4.142497 0.724984 0.083045 -0.038676 -13.781731 13.857370 -3.525872 7.125000 0.000000 0.000000 8.837117 -15.922728 6.136581
0.081779 18.077853 11.953790 -6.711729 -3.830732 3.287633 0.351864 4.219973 2.509559 -6.782457 -10.914720 -32.839375 2.200966 11.321033 33.403234 -1.172497 6.209765 6.166814 0.052198 -1.160243 -3.192359 1.663090 -5.176545 5.389756 29.049557 10.155788 -2.830274 -0.742505 -5.117703 22.251328 0.450907 -2.574846 -1.870538 -0.035780 -1.215925 3.343308 5.300571 1.657363 5.616440 5.104629 2.770917 5.732455 -1.795703 1.332299 -7.710758 -5.084238 -4.734680 -15.633165 3.241687 -5.507617 15.669682 -0.338381 -2.379876 8.101631 -7.150768 2.915741 -1.344362 -82.614086 7.942990 30.759418 12.454228 -21.022170 -2.337261 -0.232508 -0.712312 2.115326 21.930581 28.149681 11.109466 -7.125000 0.000000 0.000000 -10.179929 60.460860 -3.890665 10.955293 -1.802982 -2.462880 70.384857 5.871017 19.947422 -14.129452 27.424633 -4.160968 0.766946 0.037452 -0.084851 -14.588166 15.243525 -4.116915 7.125000 0.000000 0.000000 8.267721 -14.404136 6.004026
0.089111 18.076170 12.049890 -6.747718 -3.897426 3.409657 0.277271 4.192090 2.462097 -6.598887 -11.060710 -32.795318 1.865691 10.897392 31.907017 -1.310047 6.870114 6.930198 0.390667 -3.268412 -9.110483 1.690373 -5.185234 5.434857 28.965209 10.003363 -2.501644 -0.678774 -4.995753 21.897622 0.431182 -2.490539 -1.735192 -0.040593 -1.300252 3.575453 5.384420 1.697496 5.411808 5.072740 2.813704 5.784723 -1.849373 1.363240 -7.552333 -5.053489 -4.707693 -15.703751 3.222055 -5.467861 15.628460 -0.346287 -2.362525 8.102709 -7.157790 2.915443 -1.348310 -82.729395 7.869230 30.590147 12.308443 -20.804396 -2.276038 -0.233886 -0.739942 2.174635 21.857954 29.626603 11.584925 -7.125000 0.000000 0.000000 -11.192031 61.954801 -4.665822 10.949628 -1.791915 -2.459448 70.333714 6.121803 20.008999 -14.290508 27.625352 -4.224477 0.786938 0.015776 -0.132667 -15.047766 15.952258 -4.437879 7.125000 0.000000 0.000000 7.949459 -13.622812 5.911056
0.096812 18.072624 12.148502 -6.831164 -3.980104 3.545857 0.204079 4.162267 2.408615 -6.366013 -11.191099 -32.776020 1.541169 10.468989 30.379634 -1.465481 7.675930 8.244725 0.926062 -5.942880 -16.663214 1.716371 -5.190963 5.480393 28.923284 9.834902 -2.178446 -0.617486 -4.873090 21.550088 0.400866 -2.369673 -1.579489 -0.043208 -1.342044 3.690479 5.513527 1.739607 5.153369 5.052819 2.859474 5.846831 -1.919121 1.396556 -7.351904 -4.984550 -4.663856 -15.766618 3.179008 -5.412543 15.569740 -0.364985 -2.338429 8.096977 -7.166241 2.912536 -1.351456 -82.850892 7.721559 30.378113 12.127307 -20.531829 -2.202771 -0.239038 -0.764636 2.290024 21.895169 30.904725 12.042912 -7.125000 0.000000 0.000000 -12.039669 63.261651 -5.382909 10.941603 -1.781302 -2.457271 70.310768 6.365469 20.072487 -14.493563 27.884198 -4.316901 0.792824 0.009453 -0.181537 -15.284706 16.226102 -4.585459 7.125000 0.000000 0.000000 7.792419 -13.314797 5.843499
0.102173 18.073083 12.246214 -7.042153 -4.180699 3.670410 0.155687 4.144739 2.385623 -5.925237 -11.280944 -32.571232 1.216137 10.033072 28.961354 -1.509986 7.712764 7.195078 0.601162 -4.382890 -12.250855 1.733819 -5.200152 5.514094 29.042947 9.786765 -1.754472 -0.560984 -4.749546 21.210586 0.372008 -2.247748 -1.419889 -0.038051 -1.255050 3.450867 5.682183 1.821286 4.964710 5.114971 2.966541 5.861225 -1.984001 1.455861 -7.212071 -4.936954 -4.614852 -15.649576 3.137445 -5.365407 15.475735 -0.378984 -2.320705 8.051299 -7.171706 2.904039 -1.349206 -82.990591 7.662414 30.367059 11.879131 -20.149927 -2.119598 -0.264590 -0.734844 1.804565 23.105984 28.856979 11.974953 -7.125000 0.000000 0.000000 -9.402026 61.455797 -3.953417 10.935630 -1.776703 -2.455273 70.252285 6.627028 20.239313 -14.612773 28.032714 -4.378976 0.783693 0.039721 -0.798660 -15.226379 15.670077 -4.408452 7.125000 0.000000 0.000000 7.826932 -13.909961 5.769434
0.107018 18.074411 12.343622 -7.279877 -4.405512 3.791747 0.112576 4.130001 2.369329 -5.438927 -11.364667 -32.323949 0.891600 9.594980 27.567457 -1.529996 7.579346 5.624678 0.085254 -1.883481 -5.183931 1.749433 -5.210190 5.545188 29.197033 9.764675 -1.308876 -0.505606 -4.625998 20.873231 0.343680 -2.126383 -1.260033 -0.031155 -1.139136 3.131624 5.858101 1.911380 4.795054 5.194729 3.086911 5.863183 -2.047433 1.520606 -7.088994 -4.894906 -4.565513 -15.491659 3.097080 -5.321188 15.375911 -0.391662 -2.304808 7.997161 -7.176430 2.894442 -1.345783 -83.133452 7.628067 30.414080 11.616893 -19.745391 -2.034625 -0.295119 -0.692890 1.155011 24.610314 26.048660 11.795962 -7.125000 0.000000 0.000000 -5.947724 58.941758 -2.035748 10.930220 -1.773504 -2.453310 70.185114 6.890455 20.427230 -14.712199 28.155128 -4.433266 0.771945 0.076706 -1.532723 -15.112673 14.964664 -4.172908 7.125000 0.000000 0.000000 7.897760 -14.667675 5.695119
0.113500 18.072029 12.434756 -7.334959 -4.428718 3.878977 0.039324 4.111509 2.329506 -5.122289 -11.662094 -32.105682 0.607346 9.128315 26.116437 -1.627514 7.953793 5.790683 0.102115 -2.055101 -5.658168 1.774584 -5.223455 5.584928 29.155781 9.624239 -0.975008 -0.451279 -4.515615 20.554748 0.327965 -2.057779 -1.142431 -0.028150 -1.081707 2.973638 5.910060 1.952756 4.812054 5.183312 3.149277 5.773937 -2.089792 1.547574 -7.144587 -4.892590 -4.572595 -15.384224 3.112673 -5.343921 15.429931 -0.389102 -2.311987 7.994545 -7.177894 2.897529 -1.347419 -83.207455 7.875796 31.217732 11.450049 -19.516122 -1.981924 -0.342355 -0.680441 -1.132618 27.545649 23.849633 12.318780 -7.125000 0.000000 0.000000 -1.846260 57.236576 -0.688998 10.930622 -1.770865 -2.450973 70.087714 7.005000 20.429855 -14.787085 28.240692 -4.437773 0.816494 -0.001029 -1.310380 -15.848517 17.056947 -5.024608 7.125000 0.000000 0.000000 7.442889 -12.378405 5.703021
0.119752 18.070553 12.526336 -7.380280 -4.441449 3.968825 -0.033409 4.094123 2.288680 -4.805225 -12.001760 -31.892322 0.334063 8.667121 24.693291 -1.738445 8.362349 5.888927 0.115895 -2.194906 -6.044531 1.799926 -5.236606 5.625379 29.100840 9.466930 -0.661257 -0.396187 -4.404027 20.232121 0.310340 -1.982213 -1.011552 -0.025497 -1.030575 2.832979 5.951421 1.993354 4.815732 5.173123 3.207943 5.700333 -2.121940 1.574090 -7.184794 -4.889414 -4.583674 -15.332083 3.113845 -5.364309 15.499360 -0.391238 -2.318826 8.005119 -7.181231 2.901530 -1.349175 -83.288444 8.053164 31.665231 11.336130 -19.358128 -1.943246 -0.368367 -0.683580 -2.369910 29.141798 23.157735 12.792395 -7.125000 0.000000 0.000000 0.084221 56.832450 -0.182592 10.932654 -1.766291 -2.446112 69.990133 7.133039 20.398889 -14.841251 28.293908 -4.448516 0.817744 0.040960 -1.121796 -16.560328 16.090743 -4.858955 7.125000 0.000000 0.000000 7.068659 -13.387649 5.251922
